<?xml version="1.0" encoding="utf-8"?>
<!-- Generator: Adobe Illustrator 19.1.0, SVG Export Plug-In . SVG Version: 6.00 Build 0)  -->
<svg version="1.2" baseProfile="tiny" id="Layer_1" xmlns="http://www.w3.org/2000/svg" xmlns:xlink="http://www.w3.org/1999/xlink"
	 x="0px" y="0px" viewBox="0 0 200 200" xml:space="preserve">
<g>
	<path fill="#0C0C0C" d="M177.8,98.3v52.1h-9.5c-0.5-4.5-0.5-5.1-1.4-9.4c-6.4,8.2-12.4,11.2-22,11.2c-11.7,0-20.9-5.1-26.7-14.6
		c-4.7-8-7.1-20.8-7.1-38.7c0-18.9,2.7-31.4,8.5-39.1c5.9-7.9,15.1-11.9,26.8-11.9c19.5,0,29.9,10.7,30.7,31.7h-12.5
		c-0.5-14.5-6.8-22-18.6-22c-8.4,0-14.6,4.1-18.2,12.1c-2.7,5.9-4,15.9-4,29.9c0,29.7,6.6,42.6,22.2,42.6c8.7,0,14.8-4.5,17.8-13.4
		c1.4-4.5,2.1-10.6,2.3-20.2h-22.7V98.3H177.8z"/>
</g>
<g>
	<path fill="#0C0C0C" d="M69.3,76.5c-0.5-13.4-5.9-19.3-17.8-19.3c-11.3,0-18.1,6.2-18.1,16.5c0,8.9,4,13.4,14.8,17.2l14.8,5
		c8.8,3,13.4,5.9,16.7,10.3c3.3,4.5,4.9,10.1,4.9,17.1c0,18.1-12.1,28.8-32.6,28.8c-16.4,0-27.1-6.5-30.7-18.9
		c-1.4-4.8-1.8-7.1-1.8-14.5h12.9v3.8c0,13.4,6.5,20.1,19.7,20.1S72,136.3,72,124.1c0-10-3.2-13.4-15.6-17.8l-11.9-3.9
		c-16.9-5.7-22.8-12.8-22.8-26.7c0-17.2,11.6-27.9,30.4-27.9c12.1,0,21.5,4.5,26.1,12.8c2.2,4.2,3.3,8.8,3.5,16H69.3z"/>
</g>
<rect id="MLeft" x="82" y="-2.5" fill="#FF9D5A" width="4" height="205"/>
<rect id="MRight" x="107" y="-2.5" fill="#FF9D5A" width="4" height="205"/>
<rect id="Right" x="178" y="-2.5" fill="#FF9D5A" width="4" height="205"/>
<rect id="Left" x="18" y="-2.5" fill="#FF9D5A" width="4" height="205"/>
<rect id="Top" x="-2.5" y="44" fill="#FF9D5A" width="205" height="4"/>
<rect id="Bottom" x="-2.5" y="152" fill="#FF9D5A" width="205" height="4"/>
<g>
</g>
<g>
</g>
<g>
</g>
<g>
</g>
<g>
</g>
</svg>
